<?xml version="1.0" standalone="no"?>
<!DOCTYPE svg PUBLIC "-//W3C//DTD SVG 20010904//EN"
 "http://www.w3.org/TR/2001/REC-SVG-20010904/DTD/svg10.dtd">
<svg version="1.0" xmlns="http://www.w3.org/2000/svg"
 width="673.000000pt" height="853.000000pt" viewBox="0 0 673.000000 853.000000"
 preserveAspectRatio="xMidYMid meet">
<metadata>
Created by potrace 1.16, written by Peter Selinger 2001-2019
</metadata>
<g transform="translate(0.000000,853.000000) scale(0.100000,-0.100000)"
fill="#000000" stroke="none">
<path d="M1857 7729 c-266 -30 -573 -135 -795 -271 -341 -208 -573 -563 -707
-1082 -60 -229 -77 -356 -72 -542 4 -140 6 -156 41 -259 85 -253 205 -445 401
-640 244 -244 502 -385 867 -474 68 -16 150 -32 183 -35 33 -3 89 -8 125 -11
72 -7 92 -18 70 -39 -8 -8 -100 -40 -204 -71 -218 -65 -445 -147 -493 -176
-59 -37 -77 -100 -32 -114 35 -11 99 5 369 95 207 70 775 230 813 230 7 0 29
-45 31 -62 1 -3 4 -10 9 -14 4 -4 7 -15 7 -24 0 -9 11 -29 24 -43 14 -15 31
-53 39 -89 9 -35 36 -144 61 -242 25 -98 46 -195 46 -216 0 -20 15 -81 34
-136 114 -336 156 -467 156 -482 0 -9 7 -30 15 -46 8 -15 15 -33 15 -39 0 -6
21 -42 46 -80 64 -95 117 -114 229 -82 11 3 28 0 38 -7 33 -24 150 -393 207
-650 39 -176 55 -229 80 -256 26 -28 32 -28 69 4 39 32 39 55 6 217 -39 187
-79 329 -145 511 -33 91 -60 174 -60 185 0 24 55 71 83 71 39 0 407 129 597
209 102 43 197 81 213 85 25 6 31 1 72 -56 124 -175 298 -427 371 -540 82
-125 112 -158 146 -158 24 0 58 35 58 60 0 33 -110 198 -349 525 -57 77 -113
160 -124 183 l-22 44 32 26 c17 15 49 41 71 59 59 48 115 137 110 177 -3 30
-54 109 -560 874 -192 290 -331 510 -349 554 -10 24 -9 32 6 48 20 22 203 117
475 248 159 76 534 232 558 232 22 0 72 52 72 75 0 36 -24 49 -80 42 -92 -11
-541 -198 -796 -332 -58 -30 -112 -55 -120 -55 -26 0 -15 30 45 118 158 234
206 408 204 742 0 152 -20 260 -78 437 -95 290 -277 583 -460 746 -123 109
-339 250 -500 326 -120 57 -417 153 -530 171 -222 35 -467 47 -618 29z m647
-159 c94 -19 361 -118 471 -173 395 -198 625 -422 790 -771 136 -287 186 -561
149 -826 -50 -356 -247 -631 -639 -892 -275 -183 -612 -316 -884 -348 -110
-13 -461 -12 -576 2 -350 41 -682 183 -915 393 -263 235 -423 501 -461 764
-16 113 -6 355 20 496 65 347 200 662 385 891 214 266 599 462 951 482 156 10
638 -3 709 -18z m1038 -2677 c9 -10 53 -83 98 -163 45 -80 180 -293 300 -475
119 -181 255 -391 302 -465 46 -74 110 -174 141 -222 31 -48 57 -94 57 -102 0
-23 -37 -53 -130 -104 -214 -117 -626 -279 -957 -375 -51 -15 -52 -15 -68 9
-10 16 -29 26 -55 30 -22 4 -40 10 -40 14 0 16 -75 92 -104 104 -26 11 -39 31
-83 132 -29 66 -59 137 -67 159 -8 22 -23 58 -34 80 -11 22 -46 141 -77 265
-32 124 -89 321 -127 439 -38 118 -67 220 -64 227 7 18 62 45 171 83 153 55
381 174 535 280 80 54 154 99 166 100 11 1 28 -7 36 -16z"/>
<path d="M2752 6883 c-15 -11 -25 -33 -29 -59 -5 -36 -1 -45 26 -73 48 -49
118 -38 148 24 13 27 14 40 5 59 -24 54 -110 82 -150 49z"/>
<path d="M2055 6375 c-40 -20 -56 -47 -62 -109 -7 -65 15 -153 61 -245 49 -96
71 -111 154 -107 107 6 211 57 233 114 32 81 -83 278 -196 338 -44 24 -153 29
-190 9z m124 -109 c37 -19 104 -93 120 -134 19 -45 5 -72 -53 -103 l-47 -24
-29 32 c-16 18 -38 62 -49 99 -40 127 -20 170 58 130z"/>
<path d="M1040 6144 c-40 -27 -50 -45 -50 -90 0 -54 30 -94 72 -94 44 0 91 26
112 61 17 29 17 33 2 72 -24 62 -85 85 -136 51z"/>
<path d="M5136 5045 c-15 -8 -46 -29 -69 -48 -113 -91 -219 -146 -385 -201
-54 -18 -72 -38 -72 -80 0 -35 45 -69 82 -61 17 4 28 2 28 -4 0 -6 18 -23 40
-37 22 -15 40 -31 40 -36 0 -18 392 -742 443 -818 60 -89 175 -235 267 -340
190 -214 235 -280 395 -578 65 -122 91 -162 103 -160 18 4 56 -47 47 -62 -8
-13 28 -152 42 -157 16 -6 173 76 173 91 -1 6 -25 38 -55 71 -42 47 -56 57
-66 48 -10 -10 -3 -22 29 -57 23 -25 42 -49 42 -54 0 -7 -28 -23 -101 -60 -4
-1 -12 21 -19 50 -7 29 -16 60 -21 69 -6 12 0 20 27 32 37 18 45 46 18 68 -14
11 -14 13 0 21 9 5 16 14 16 19 0 6 -49 101 -109 212 -135 250 -147 279 -226
557 -80 283 -124 410 -184 530 -65 130 -369 699 -391 731 -21 30 -30 130 -13
150 47 57 -16 137 -81 104z m62 -51 c6 -45 -205 -192 -366 -255 -127 -49 -163
-57 -181 -36 -22 27 2 47 100 81 130 46 202 84 311 166 96 73 130 84 136 44z
m-18 -139 c0 -16 -41 -42 -191 -122 -186 -99 -192 -101 -216 -86 -29 19 -24
25 51 52 111 41 291 144 327 188 15 17 29 1 29 -32z m181 -377 c94 -178 189
-352 209 -388 58 -104 129 -303 200 -565 75 -272 84 -294 222 -553 60 -112
108 -205 106 -207 -2 -1 -22 -12 -45 -24 l-42 -21 -24 43 c-14 23 -62 112
-107 197 -110 207 -160 276 -360 500 -42 47 -101 117 -131 155 -29 39 -57 72
-61 73 -5 2 -8 8 -8 12 0 5 -20 37 -44 72 -24 35 -136 236 -250 447 -151 281
-203 387 -194 393 17 10 28 10 28 -1 0 -9 383 -726 415 -776 11 -16 38 -54 60
-84 22 -30 56 -76 75 -102 19 -26 69 -87 110 -135 174 -202 257 -306 295 -368
37 -61 65 -83 65 -52 0 7 -16 48 -36 91 -19 42 -66 186 -104 319 -117 411
-118 413 -393 925 -149 277 -187 355 -176 362 8 5 15 9 15 9 1 0 80 -145 175
-322z m-54 -48 l148 -275 -65 -34 c-36 -18 -91 -49 -122 -67 l-57 -33 -127
237 c-70 130 -144 269 -165 307 l-38 70 122 66 122 67 17 -32 c9 -17 84 -155
165 -306z m231 -432 c17 -35 47 -110 67 -167 42 -122 166 -556 155 -544 -85
96 -277 325 -333 396 -73 93 -173 245 -166 251 9 7 234 126 240 126 3 0 20
-28 37 -62z"/>
<path d="M1557 3703 c-9 -2 -24 -17 -32 -33 -17 -33 -8 -72 21 -88 22 -12 45
-118 33 -147 -15 -34 -176 -804 -189 -900 -6 -49 -13 -246 -15 -437 -4 -378
-3 -367 -90 -756 -21 -93 -22 -108 -9 -118 9 -7 13 -25 12 -45 -3 -31 -1 -33
37 -41 l40 -8 -3 -71 c-4 -67 -5 -70 -25 -66 -12 3 -39 9 -59 12 -21 4 -38 9
-38 11 0 3 12 27 26 55 24 48 26 88 4 74 -6 -4 -26 -37 -45 -75 -26 -52 -31
-70 -22 -78 16 -14 174 -45 187 -37 13 8 13 131 0 155 -15 28 -1 80 21 80 11
0 21 9 24 23 3 12 25 117 50 232 57 265 67 294 187 558 115 255 147 332 182
447 24 82 196 863 196 894 0 27 64 104 92 111 51 12 71 66 39 106 -19 24 -28
27 -133 33 -146 9 -220 25 -353 75 -60 23 -111 40 -114 40 -3 -1 -14 -3 -24
-6z m129 -68 c128 -48 208 -65 343 -73 120 -7 143 -17 127 -57 -6 -16 -17 -17
-129 -12 -148 8 -221 23 -357 74 -105 39 -128 57 -117 87 9 23 27 20 133 -19z
m26 -119 c114 -39 204 -56 290 -56 64 0 76 -9 50 -39 l-17 -21 -160 35 c-88
18 -184 39 -212 45 -32 7 -53 17 -53 25 0 7 -3 20 -6 29 -8 21 -12 21 108 -18z
m-66 -83 c-12 -41 -176 -824 -186 -888 -6 -39 -13 -230 -16 -425 -2 -195 -9
-386 -14 -424 -7 -47 -7 -73 -1 -79 15 -15 19 -8 37 59 20 77 72 206 179 437
47 103 103 240 125 305 34 104 210 886 210 933 0 13 7 19 24 19 23 0 24 -2 16
-27 -5 -16 -48 -208 -95 -428 -105 -492 -121 -545 -277 -879 -114 -245 -141
-325 -193 -571 -26 -121 -51 -224 -55 -228 -6 -7 -86 5 -95 15 -2 2 16 95 41
208 60 278 64 323 63 656 0 159 4 330 10 379 6 50 52 285 103 523 81 383 94
432 111 432 13 0 17 -5 13 -17z m155 -18 c63 -14 124 -27 136 -30 19 -4 21 -9
13 -33 -5 -15 -39 -170 -76 -345 -37 -174 -70 -314 -73 -309 -3 5 -62 20 -130
35 -68 15 -126 29 -128 31 -3 3 27 152 66 333 39 180 71 331 71 336 0 9 -10
11 121 -18z m-171 -780 c62 -14 124 -25 137 -25 19 0 23 -4 19 -17 -3 -10 -8
-31 -12 -48 -21 -96 -91 -273 -208 -523 -42 -90 -77 -169 -78 -175 -6 -35 -12
407 -7 514 6 106 27 299 34 299 1 0 53 -11 115 -25z"/>
</g>
</svg>
