<?xml version="1.0" standalone="no"?>
<!DOCTYPE svg PUBLIC "-//W3C//DTD SVG 20010904//EN"
 "http://www.w3.org/TR/2001/REC-SVG-20010904/DTD/svg10.dtd">
<svg version="1.0" xmlns="http://www.w3.org/2000/svg"
 width="680.000000pt" height="828.000000pt" viewBox="0 0 680.000000 828.000000"
 preserveAspectRatio="xMidYMid meet">
<metadata>
Created by potrace 1.16, written by Peter Selinger 2001-2019
</metadata>
<g transform="translate(0.000000,828.000000) scale(0.100000,-0.100000)"
fill="#000000" stroke="none">
<path d="M2047 7519 c-304 -35 -654 -165 -881 -328 -237 -169 -420 -434 -557
-803 -42 -115 -116 -419 -129 -536 -7 -60 -10 -161 -7 -241 5 -124 9 -149 41
-247 82 -246 205 -443 396 -635 183 -183 407 -328 635 -409 157 -55 351 -100
485 -111 193 -16 188 -36 -25 -99 -206 -61 -431 -138 -503 -172 -42 -20 -70
-40 -83 -61 -23 -39 -23 -41 -2 -62 27 -28 88 -14 380 84 264 89 804 238 822
227 5 -3 17 -31 26 -61 10 -30 28 -66 40 -79 13 -14 29 -49 36 -78 7 -29 23
-91 36 -138 13 -47 26 -101 29 -120 3 -19 12 -54 20 -78 8 -23 19 -77 24 -120
9 -73 32 -160 60 -227 7 -16 14 -34 16 -40 1 -5 8 -23 15 -40 6 -16 14 -39 16
-49 2 -11 8 -25 14 -33 6 -7 9 -13 5 -13 -3 0 -1 -12 5 -27 6 -16 13 -39 16
-53 2 -13 8 -29 13 -35 4 -5 13 -37 20 -70 7 -33 15 -64 18 -70 4 -5 7 -16 8
-23 4 -25 46 -102 80 -146 45 -59 92 -75 170 -58 30 6 62 8 70 5 20 -7 41 -57
92 -214 52 -160 96 -318 122 -444 31 -147 57 -228 80 -253 26 -28 32 -28 69 4
36 30 38 51 16 169 -33 172 -89 377 -151 547 -35 98 -64 187 -64 197 0 24 55
71 83 71 40 0 408 130 598 210 102 43 197 82 212 85 23 6 31 1 71 -57 125
-175 299 -427 373 -540 91 -140 119 -167 161 -152 39 14 51 56 27 97 -39 67
-143 219 -283 412 -158 216 -197 278 -189 299 3 8 31 33 62 56 73 54 145 151
145 195 0 26 -44 100 -214 357 -568 857 -708 1076 -704 1103 4 27 56 59 274
169 265 132 420 202 624 281 180 69 220 93 220 131 0 35 -24 47 -80 41 -92
-11 -541 -198 -796 -332 -156 -82 -166 -75 -78 56 155 232 205 406 206 714 1
182 -12 269 -69 448 -89 282 -245 550 -423 725 -126 125 -321 259 -520 358
-118 58 -403 154 -531 179 -202 38 -481 53 -642 34z m548 -149 c102 -9 143
-18 270 -61 545 -185 889 -467 1090 -893 111 -234 158 -426 158 -641 0 -331
-86 -554 -309 -797 -281 -306 -811 -578 -1219 -627 -132 -16 -464 -14 -598 4
-353 46 -665 182 -897 390 -235 210 -393 451 -447 683 -22 95 -25 404 -4 522
66 380 202 706 395 946 219 272 603 464 966 483 162 8 443 4 595 -9z m1137
-2687 c9 -10 53 -83 98 -163 45 -80 180 -293 300 -475 209 -318 441 -680 484
-757 l21 -37 -30 -31 c-37 -38 -317 -177 -515 -255 -134 -53 -424 -153 -548
-189 -47 -13 -54 -14 -59 0 -7 18 -55 44 -83 44 -11 0 -20 4 -20 10 0 16 -83
97 -107 104 -14 5 -34 33 -59 84 -20 42 -38 79 -39 82 -4 17 -70 181 -85 210
-10 19 -43 136 -75 260 -32 124 -89 321 -127 438 -38 118 -67 220 -64 228 7
18 61 44 171 83 153 55 381 174 535 280 80 54 154 99 166 100 11 1 28 -7 36
-16z"/>
<path d="M2243 6164 c-85 -43 -84 -184 3 -355 55 -111 98 -128 229 -94 74 20
129 55 151 97 14 27 15 39 5 84 -20 87 -121 222 -195 261 -44 23 -154 27 -193
7z m126 -108 c35 -19 97 -87 118 -131 22 -46 9 -74 -51 -106 l-47 -24 -29 32
c-16 18 -38 62 -49 99 -40 127 -20 170 58 130z"/>
<path d="M5326 4835 c-15 -8 -46 -29 -69 -48 -112 -90 -227 -150 -385 -202
-29 -9 -57 -25 -62 -35 -28 -52 5 -105 65 -103 19 1 35 -3 35 -8 0 -5 18 -21
40 -35 22 -15 40 -31 40 -36 0 -14 321 -613 401 -748 69 -117 185 -269 335
-440 179 -204 211 -252 369 -548 65 -122 91 -162 103 -160 18 4 56 -47 47 -62
-8 -13 28 -152 42 -157 16 -6 173 76 173 91 -1 6 -25 38 -55 71 -42 47 -56 57
-66 48 -10 -10 -3 -22 29 -57 23 -25 42 -49 42 -54 0 -4 -24 -20 -54 -34 l-54
-27 -12 52 c-7 29 -16 59 -21 68 -6 12 0 20 27 32 37 18 45 46 18 68 -14 11
-14 13 0 21 9 5 16 14 16 19 0 6 -49 101 -109 213 -132 244 -153 295 -225 551
-85 307 -125 415 -213 590 -57 113 -347 652 -363 676 -21 30 -30 130 -13 150
47 57 -16 137 -81 104z m62 -51 c6 -45 -205 -192 -366 -255 -127 -49 -163 -57
-181 -36 -22 27 2 47 100 81 130 46 202 84 311 166 96 73 130 84 136 44z m-18
-139 c0 -16 -41 -42 -191 -122 -186 -99 -192 -102 -216 -86 -29 19 -24 25 51
52 110 41 226 105 311 175 32 25 45 20 45 -19z m215 -440 c109 -203 201 -374
205 -380 25 -36 115 -309 190 -580 54 -194 82 -260 208 -493 57 -107 102 -195
100 -197 -1 -1 -22 -12 -45 -24 l-42 -21 -24 43 c-14 23 -64 115 -111 205 -99
184 -155 263 -317 446 -235 266 -278 332 -538 815 -150 279 -198 376 -189 383
17 10 28 10 28 -1 0 -12 389 -734 426 -792 54 -82 148 -204 269 -344 168 -196
207 -244 256 -324 62 -99 96 -94 45 7 -34 68 -68 170 -130 392 -99 354 -108
374 -379 879 -148 275 -187 355 -176 362 8 4 17 5 20 1 3 -4 95 -173 204 -377z
m-98 35 l158 -295 -49 -25 c-28 -14 -83 -44 -123 -66 l-72 -42 -127 237 c-70
130 -144 268 -165 306 l-39 71 123 66 c80 43 124 62 129 54 3 -6 77 -144 165
-306z m245 -462 c44 -89 91 -233 167 -503 l58 -206 -31 38 c-17 21 -82 96
-145 168 -62 71 -140 165 -173 208 -59 78 -162 237 -156 242 8 7 234 125 239
125 3 0 22 -33 41 -72z"/>
<path d="M1747 3493 c-9 -2 -24 -17 -32 -33 -17 -33 -8 -72 21 -88 22 -12 45
-118 33 -147 -9 -20 -135 -599 -170 -780 -23 -120 -43 -459 -34 -600 10 -165
-9 -344 -64 -595 -42 -193 -47 -227 -35 -236 9 -7 13 -25 12 -45 -3 -31 -1
-33 37 -41 l40 -8 -3 -71 c-4 -67 -5 -70 -25 -66 -12 3 -39 9 -59 12 -21 4
-38 9 -38 11 0 3 12 27 26 55 24 48 26 88 4 74 -6 -4 -26 -37 -45 -75 -26 -52
-31 -70 -22 -78 16 -14 174 -45 187 -37 12 8 13 115 1 147 -13 36 -2 88 19 88
22 0 18 -14 75 250 57 269 66 297 187 563 115 254 147 332 182 447 24 81 196
863 196 895 0 27 64 103 92 110 51 12 71 66 39 106 -19 24 -28 27 -133 33
-146 9 -220 25 -353 75 -60 23 -111 40 -114 40 -3 -1 -14 -3 -24 -6z m129 -68
c128 -48 208 -65 343 -73 120 -7 143 -17 127 -57 -6 -16 -17 -17 -129 -12
-148 8 -221 23 -357 74 -105 39 -128 57 -117 87 9 23 27 20 133 -19z m26 -119
c111 -38 203 -56 283 -56 67 0 81 -10 58 -38 l-18 -22 -160 35 c-88 18 -184
39 -212 45 -32 7 -53 17 -53 25 0 7 -3 20 -6 29 -8 21 -12 21 108 -18z m-67
-88 c-38 -163 -171 -796 -182 -868 -10 -67 -16 -201 -19 -450 -2 -195 -8 -379
-14 -409 -5 -30 -10 -63 -10 -73 0 -29 29 -21 36 10 15 72 73 220 155 400 106
229 147 333 183 457 27 95 186 828 186 858 0 11 8 17 24 17 23 0 24 -2 16 -27
-5 -16 -43 -185 -84 -378 -118 -554 -122 -567 -268 -885 -134 -291 -161 -369
-213 -615 -26 -121 -51 -224 -55 -228 -8 -9 -68 -1 -87 11 -8 5 0 61 28 187
65 293 69 336 68 670 0 165 4 341 10 390 7 50 53 285 103 523 80 378 94 432
110 432 14 0 17 -5 13 -22z m156 -13 c162 -35 160 -35 155 -44 -3 -4 -37 -156
-76 -336 -38 -181 -71 -329 -73 -330 -3 -3 -260 54 -264 59 -2 2 27 152 66
333 39 180 71 331 71 336 0 9 -10 11 121 -18z m-171 -780 c62 -14 124 -25 137
-25 19 0 23 -4 19 -17 -3 -10 -8 -31 -12 -48 -21 -96 -91 -273 -208 -523 -42
-90 -77 -169 -78 -175 -6 -35 -12 407 -7 514 6 106 27 299 34 299 1 0 53 -11
115 -25z"/>
</g>
</svg>
